<mxfile host="app.diagrams.net" modified="2023-03-31T09:06:31.178Z" agent="5.0 (Windows NT 10.0; Win64; x64) AppleWebKit/537.36 (KHTML, like Gecko) Chrome/111.0.0.0 Safari/537.36" etag="e5wq0XPCW0rE36OAkMOZ" version="21.0.8" type="github">
  <diagram name="第 1 页" id="Jgc5Q6hr3YFyk42l-3hk">
    <mxGraphModel dx="989" dy="610" grid="1" gridSize="10" guides="1" tooltips="1" connect="1" arrows="1" fold="1" page="1" pageScale="1" pageWidth="827" pageHeight="1169" math="0" shadow="0">
      <root>
        <mxCell id="0" />
        <mxCell id="1" parent="0" />
        <mxCell id="1eZ7Ucmmsv_nOP4tIIti-206" value="" style="group" vertex="1" connectable="0" parent="1">
          <mxGeometry x="190" y="140" width="1050.1600000000003" height="229.5" as="geometry" />
        </mxCell>
        <mxCell id="1eZ7Ucmmsv_nOP4tIIti-2" value="" style="rounded=0;whiteSpace=wrap;html=1;" vertex="1" parent="1eZ7Ucmmsv_nOP4tIIti-206">
          <mxGeometry x="43" y="50" width="1007.16" height="140" as="geometry" />
        </mxCell>
        <mxCell id="1eZ7Ucmmsv_nOP4tIIti-10" value="&lt;div&gt;&amp;lt;&amp;lt;component&amp;gt;&amp;gt;&lt;/div&gt;&lt;div&gt;&lt;b&gt;Portal&lt;/b&gt;&lt;/div&gt;" style="html=1;align=left;spacingLeft=21;verticalAlign=top;" vertex="1" parent="1eZ7Ucmmsv_nOP4tIIti-206">
          <mxGeometry x="42.997142857142876" width="1007.1628571428573" height="50" as="geometry" />
        </mxCell>
        <mxCell id="1eZ7Ucmmsv_nOP4tIIti-11" value="" style="shape=module;jettyWidth=10;jettyHeight=4;" vertex="1" parent="1eZ7Ucmmsv_nOP4tIIti-10">
          <mxGeometry x="1" width="16" height="20" relative="1" as="geometry">
            <mxPoint x="-25" y="9" as="offset" />
          </mxGeometry>
        </mxCell>
        <mxCell id="1eZ7Ucmmsv_nOP4tIIti-184" value="" style="group" vertex="1" connectable="0" parent="1eZ7Ucmmsv_nOP4tIIti-206">
          <mxGeometry x="940.8" y="189.5" width="20" height="36.5" as="geometry" />
        </mxCell>
        <mxCell id="1eZ7Ucmmsv_nOP4tIIti-173" value="" style="html=1;rounded=0;" vertex="1" parent="1eZ7Ucmmsv_nOP4tIIti-184">
          <mxGeometry width="20" height="20" as="geometry" />
        </mxCell>
        <mxCell id="1eZ7Ucmmsv_nOP4tIIti-174" value="" style="endArrow=none;html=1;rounded=0;align=center;verticalAlign=top;endFill=0;labelBackgroundColor=none;endSize=2;" edge="1" parent="1eZ7Ucmmsv_nOP4tIIti-184" source="1eZ7Ucmmsv_nOP4tIIti-173" target="1eZ7Ucmmsv_nOP4tIIti-175">
          <mxGeometry relative="1" as="geometry" />
        </mxCell>
        <mxCell id="1eZ7Ucmmsv_nOP4tIIti-175" value="" style="shape=requiredInterface;html=1;fontSize=11;align=center;fillColor=none;points=[];aspect=fixed;resizable=0;verticalAlign=bottom;labelPosition=center;verticalLabelPosition=top;flipH=1;rotation=90;" vertex="1" parent="1eZ7Ucmmsv_nOP4tIIti-184">
          <mxGeometry x="7.5" y="29" width="5" height="10" as="geometry" />
        </mxCell>
        <mxCell id="1eZ7Ucmmsv_nOP4tIIti-185" value="" style="group" vertex="1" connectable="0" parent="1eZ7Ucmmsv_nOP4tIIti-206">
          <mxGeometry x="889.998990825688" y="69.5" width="134.36146788990823" height="95.5" as="geometry" />
        </mxCell>
        <mxCell id="1eZ7Ucmmsv_nOP4tIIti-152" value="&lt;div&gt;&amp;lt;&amp;lt;component&amp;gt;&amp;gt;&lt;/div&gt;&lt;div&gt;&lt;b&gt;:Show&lt;/b&gt;&lt;/div&gt;" style="html=1;align=left;spacingLeft=9;verticalAlign=top;container=0;" vertex="1" parent="1eZ7Ucmmsv_nOP4tIIti-185">
          <mxGeometry width="134.36146788990825" height="60" as="geometry" />
        </mxCell>
        <mxCell id="1eZ7Ucmmsv_nOP4tIIti-156" value="" style="shape=module;jettyWidth=10;jettyHeight=4;container=0;" vertex="1" parent="1eZ7Ucmmsv_nOP4tIIti-185">
          <mxGeometry x="109.36146788990823" y="9" width="16" height="20" as="geometry">
            <mxPoint x="-25" y="9" as="offset" />
          </mxGeometry>
        </mxCell>
        <mxCell id="1eZ7Ucmmsv_nOP4tIIti-183" value="" style="group" vertex="1" connectable="0" parent="1eZ7Ucmmsv_nOP4tIIti-185">
          <mxGeometry x="51.6110091743119" y="60" width="18.3900000000001" height="35.5" as="geometry" />
        </mxCell>
        <mxCell id="1eZ7Ucmmsv_nOP4tIIti-153" value="" style="html=1;rounded=0;container=0;" vertex="1" parent="1eZ7Ucmmsv_nOP4tIIti-183">
          <mxGeometry width="18.39" height="17.75" as="geometry" />
        </mxCell>
        <mxCell id="1eZ7Ucmmsv_nOP4tIIti-154" value="" style="endArrow=none;html=1;rounded=0;align=center;verticalAlign=top;endFill=0;labelBackgroundColor=none;endSize=2;" edge="1" parent="1eZ7Ucmmsv_nOP4tIIti-183" source="1eZ7Ucmmsv_nOP4tIIti-153" target="1eZ7Ucmmsv_nOP4tIIti-155">
          <mxGeometry relative="1" as="geometry" />
        </mxCell>
        <mxCell id="1eZ7Ucmmsv_nOP4tIIti-155" value="" style="shape=requiredInterface;html=1;fontSize=11;align=center;fillColor=none;points=[];aspect=fixed;resizable=0;verticalAlign=bottom;labelPosition=center;verticalLabelPosition=top;flipH=1;rotation=90;container=0;" vertex="1" parent="1eZ7Ucmmsv_nOP4tIIti-183">
          <mxGeometry x="6.690000000000055" y="28" width="5" height="10" as="geometry" />
        </mxCell>
        <mxCell id="1eZ7Ucmmsv_nOP4tIIti-176" value="" style="endArrow=none;html=1;rounded=0;align=center;verticalAlign=top;endFill=0;labelBackgroundColor=none;endSize=2;entryX=0.5;entryY=0;entryDx=0;entryDy=0;" edge="1" parent="1eZ7Ucmmsv_nOP4tIIti-206" source="1eZ7Ucmmsv_nOP4tIIti-155" target="1eZ7Ucmmsv_nOP4tIIti-173">
          <mxGeometry relative="1" as="geometry">
            <mxPoint x="791" y="175.5" as="sourcePoint" />
            <mxPoint x="791" y="199.5" as="targetPoint" />
          </mxGeometry>
        </mxCell>
        <mxCell id="1eZ7Ucmmsv_nOP4tIIti-187" value="" style="group" vertex="1" connectable="0" parent="1eZ7Ucmmsv_nOP4tIIti-206">
          <mxGeometry x="719.9989908256881" y="69.5" width="134.36146788990834" height="95.5" as="geometry" />
        </mxCell>
        <mxCell id="1eZ7Ucmmsv_nOP4tIIti-139" value="&lt;div&gt;&amp;lt;&amp;lt;component&amp;gt;&amp;gt;&lt;/div&gt;&lt;div&gt;&lt;b&gt;:ShowError&lt;/b&gt;&lt;/div&gt;" style="html=1;align=left;spacingLeft=9;verticalAlign=top;container=0;" vertex="1" parent="1eZ7Ucmmsv_nOP4tIIti-187">
          <mxGeometry width="134.36146788990825" height="60" as="geometry" />
        </mxCell>
        <mxCell id="1eZ7Ucmmsv_nOP4tIIti-146" value="" style="shape=module;jettyWidth=10;jettyHeight=4;container=0;" vertex="1" parent="1eZ7Ucmmsv_nOP4tIIti-187">
          <mxGeometry x="109.36146788990834" y="9" width="16" height="20" as="geometry">
            <mxPoint x="-25" y="9" as="offset" />
          </mxGeometry>
        </mxCell>
        <mxCell id="1eZ7Ucmmsv_nOP4tIIti-186" value="" style="group" vertex="1" connectable="0" parent="1eZ7Ucmmsv_nOP4tIIti-187">
          <mxGeometry x="51.61100917431202" y="60" width="18.3900000000001" height="35.5" as="geometry" />
        </mxCell>
        <mxCell id="1eZ7Ucmmsv_nOP4tIIti-143" value="" style="html=1;rounded=0;container=0;" vertex="1" parent="1eZ7Ucmmsv_nOP4tIIti-186">
          <mxGeometry width="18.39" height="17.75" as="geometry" />
        </mxCell>
        <mxCell id="1eZ7Ucmmsv_nOP4tIIti-144" value="" style="endArrow=none;html=1;rounded=0;align=center;verticalAlign=top;endFill=0;labelBackgroundColor=none;endSize=2;" edge="1" parent="1eZ7Ucmmsv_nOP4tIIti-186" source="1eZ7Ucmmsv_nOP4tIIti-143" target="1eZ7Ucmmsv_nOP4tIIti-145">
          <mxGeometry relative="1" as="geometry" />
        </mxCell>
        <mxCell id="1eZ7Ucmmsv_nOP4tIIti-145" value="" style="shape=requiredInterface;html=1;fontSize=11;align=center;fillColor=none;points=[];aspect=fixed;resizable=0;verticalAlign=bottom;labelPosition=center;verticalLabelPosition=top;flipH=1;rotation=90;container=0;" vertex="1" parent="1eZ7Ucmmsv_nOP4tIIti-186">
          <mxGeometry x="6.690000000000055" y="28" width="5" height="10" as="geometry" />
        </mxCell>
        <mxCell id="1eZ7Ucmmsv_nOP4tIIti-188" value="" style="group" vertex="1" connectable="0" parent="1eZ7Ucmmsv_nOP4tIIti-206">
          <mxGeometry x="770.8" y="189.5" width="20" height="37.5" as="geometry" />
        </mxCell>
        <mxCell id="1eZ7Ucmmsv_nOP4tIIti-169" value="" style="html=1;rounded=0;" vertex="1" parent="1eZ7Ucmmsv_nOP4tIIti-188">
          <mxGeometry width="20" height="20" as="geometry" />
        </mxCell>
        <mxCell id="1eZ7Ucmmsv_nOP4tIIti-170" value="" style="endArrow=none;html=1;rounded=0;align=center;verticalAlign=top;endFill=0;labelBackgroundColor=none;endSize=2;" edge="1" parent="1eZ7Ucmmsv_nOP4tIIti-188" source="1eZ7Ucmmsv_nOP4tIIti-169" target="1eZ7Ucmmsv_nOP4tIIti-171">
          <mxGeometry relative="1" as="geometry" />
        </mxCell>
        <mxCell id="1eZ7Ucmmsv_nOP4tIIti-171" value="" style="shape=requiredInterface;html=1;fontSize=11;align=center;fillColor=none;points=[];aspect=fixed;resizable=0;verticalAlign=bottom;labelPosition=center;verticalLabelPosition=top;flipH=1;rotation=90;" vertex="1" parent="1eZ7Ucmmsv_nOP4tIIti-188">
          <mxGeometry x="7.5" y="30" width="5" height="10" as="geometry" />
        </mxCell>
        <mxCell id="1eZ7Ucmmsv_nOP4tIIti-172" value="" style="endArrow=none;html=1;rounded=0;align=center;verticalAlign=top;endFill=0;labelBackgroundColor=none;endSize=2;entryX=0.5;entryY=0;entryDx=0;entryDy=0;" edge="1" parent="1eZ7Ucmmsv_nOP4tIIti-206" source="1eZ7Ucmmsv_nOP4tIIti-145" target="1eZ7Ucmmsv_nOP4tIIti-169">
          <mxGeometry relative="1" as="geometry">
            <mxPoint x="790" y="219.5" as="sourcePoint" />
            <mxPoint x="790" y="232.5" as="targetPoint" />
          </mxGeometry>
        </mxCell>
        <mxCell id="1eZ7Ucmmsv_nOP4tIIti-192" value="" style="group" vertex="1" connectable="0" parent="1eZ7Ucmmsv_nOP4tIIti-206">
          <mxGeometry x="588.63" y="189.5" width="20" height="40" as="geometry" />
        </mxCell>
        <mxCell id="1eZ7Ucmmsv_nOP4tIIti-165" value="" style="html=1;rounded=0;" vertex="1" parent="1eZ7Ucmmsv_nOP4tIIti-192">
          <mxGeometry width="20" height="20" as="geometry" />
        </mxCell>
        <mxCell id="1eZ7Ucmmsv_nOP4tIIti-166" value="" style="endArrow=none;html=1;rounded=0;align=center;verticalAlign=top;endFill=0;labelBackgroundColor=none;endSize=2;" edge="1" source="1eZ7Ucmmsv_nOP4tIIti-165" target="1eZ7Ucmmsv_nOP4tIIti-167" parent="1eZ7Ucmmsv_nOP4tIIti-192">
          <mxGeometry relative="1" as="geometry" />
        </mxCell>
        <mxCell id="1eZ7Ucmmsv_nOP4tIIti-167" value="" style="ellipse;html=1;fontSize=11;align=center;fillColor=none;points=[];aspect=fixed;resizable=0;verticalAlign=bottom;labelPosition=center;verticalLabelPosition=top;flipH=1;" vertex="1" parent="1eZ7Ucmmsv_nOP4tIIti-192">
          <mxGeometry x="6" y="32" width="8" height="8" as="geometry" />
        </mxCell>
        <mxCell id="1eZ7Ucmmsv_nOP4tIIti-84" value="" style="shape=module;jettyWidth=10;jettyHeight=4;container=0;" vertex="1" parent="1eZ7Ucmmsv_nOP4tIIti-206">
          <mxGeometry x="647.7504587155963" y="78.5" width="16" height="20" as="geometry">
            <mxPoint x="-25" y="9" as="offset" />
          </mxGeometry>
        </mxCell>
        <mxCell id="1eZ7Ucmmsv_nOP4tIIti-194" value="" style="group" vertex="1" connectable="0" parent="1eZ7Ucmmsv_nOP4tIIti-206">
          <mxGeometry x="500" y="69.5" width="172.75045871559632" height="98" as="geometry" />
        </mxCell>
        <mxCell id="1eZ7Ucmmsv_nOP4tIIti-189" value="" style="group" vertex="1" connectable="0" parent="1eZ7Ucmmsv_nOP4tIIti-194">
          <mxGeometry y="21.129999999999995" width="38.389999999999986" height="17.75" as="geometry" />
        </mxCell>
        <mxCell id="1eZ7Ucmmsv_nOP4tIIti-81" value="" style="html=1;rounded=0;container=0;" vertex="1" parent="1eZ7Ucmmsv_nOP4tIIti-189">
          <mxGeometry x="20" width="18.39" height="17.75" as="geometry" />
        </mxCell>
        <mxCell id="1eZ7Ucmmsv_nOP4tIIti-82" value="" style="endArrow=none;html=1;rounded=0;align=center;verticalAlign=top;endFill=0;labelBackgroundColor=none;endSize=2;exitX=0;exitY=0.5;exitDx=0;exitDy=0;" edge="1" parent="1eZ7Ucmmsv_nOP4tIIti-189" source="1eZ7Ucmmsv_nOP4tIIti-81" target="1eZ7Ucmmsv_nOP4tIIti-83">
          <mxGeometry relative="1" as="geometry" />
        </mxCell>
        <mxCell id="1eZ7Ucmmsv_nOP4tIIti-83" value="" style="shape=requiredInterface;html=1;fontSize=11;align=center;fillColor=none;points=[];aspect=fixed;resizable=0;verticalAlign=bottom;labelPosition=center;verticalLabelPosition=top;flipH=1;rotation=-180;container=0;" vertex="1" parent="1eZ7Ucmmsv_nOP4tIIti-189">
          <mxGeometry y="3.8700000000000045" width="5" height="10" as="geometry" />
        </mxCell>
        <mxCell id="1eZ7Ucmmsv_nOP4tIIti-77" value="&lt;div&gt;&amp;lt;&amp;lt;component&amp;gt;&amp;gt;&lt;/div&gt;&lt;div&gt;&lt;b&gt;:Process&lt;/b&gt;&lt;/div&gt;" style="html=1;align=left;spacingLeft=9;verticalAlign=top;container=0;" vertex="1" parent="1eZ7Ucmmsv_nOP4tIIti-194">
          <mxGeometry x="38.3889908256881" width="134.36146788990825" height="60" as="geometry" />
        </mxCell>
        <mxCell id="1eZ7Ucmmsv_nOP4tIIti-190" value="" style="group" vertex="1" connectable="0" parent="1eZ7Ucmmsv_nOP4tIIti-194">
          <mxGeometry x="90" y="60" width="17.25" height="38" as="geometry" />
        </mxCell>
        <mxCell id="1eZ7Ucmmsv_nOP4tIIti-85" value="" style="html=1;rounded=0;container=0;" vertex="1" parent="1eZ7Ucmmsv_nOP4tIIti-190">
          <mxGeometry width="17.25" height="17.75" as="geometry" />
        </mxCell>
        <mxCell id="1eZ7Ucmmsv_nOP4tIIti-86" value="" style="endArrow=none;html=1;rounded=0;align=center;verticalAlign=top;endFill=0;labelBackgroundColor=none;endSize=2;" edge="1" parent="1eZ7Ucmmsv_nOP4tIIti-190" source="1eZ7Ucmmsv_nOP4tIIti-85" target="1eZ7Ucmmsv_nOP4tIIti-87">
          <mxGeometry relative="1" as="geometry" />
        </mxCell>
        <mxCell id="1eZ7Ucmmsv_nOP4tIIti-87" value="" style="ellipse;html=1;fontSize=11;align=center;fillColor=none;points=[];aspect=fixed;resizable=0;verticalAlign=bottom;labelPosition=center;verticalLabelPosition=top;flipH=1;container=0;" vertex="1" parent="1eZ7Ucmmsv_nOP4tIIti-190">
          <mxGeometry x="4.6299999999999955" y="30" width="8" height="8" as="geometry" />
        </mxCell>
        <mxCell id="1eZ7Ucmmsv_nOP4tIIti-168" value="" style="endArrow=none;html=1;rounded=0;align=center;verticalAlign=top;endFill=0;labelBackgroundColor=none;endSize=2;exitX=0.479;exitY=1.009;exitDx=0;exitDy=0;exitPerimeter=0;" edge="1" parent="1eZ7Ucmmsv_nOP4tIIti-206" source="1eZ7Ucmmsv_nOP4tIIti-87" target="1eZ7Ucmmsv_nOP4tIIti-165">
          <mxGeometry relative="1" as="geometry">
            <mxPoint x="560" y="205.5" as="sourcePoint" />
            <mxPoint x="560" y="227.5" as="targetPoint" />
          </mxGeometry>
        </mxCell>
        <mxCell id="1eZ7Ucmmsv_nOP4tIIti-71" value="" style="shape=module;jettyWidth=10;jettyHeight=4;container=0;" vertex="1" parent="1eZ7Ucmmsv_nOP4tIIti-206">
          <mxGeometry x="427.7504587155963" y="78.5" width="16" height="20" as="geometry">
            <mxPoint x="-25" y="9" as="offset" />
          </mxGeometry>
        </mxCell>
        <mxCell id="1eZ7Ucmmsv_nOP4tIIti-198" value="" style="group" vertex="1" connectable="0" parent="1eZ7Ucmmsv_nOP4tIIti-206">
          <mxGeometry x="280" y="69.5" width="208" height="97.5" as="geometry" />
        </mxCell>
        <mxCell id="1eZ7Ucmmsv_nOP4tIIti-64" value="&lt;div&gt;&amp;lt;&amp;lt;component&amp;gt;&amp;gt;&lt;/div&gt;&lt;div&gt;&lt;b&gt;:GetToken&lt;/b&gt;&lt;/div&gt;" style="html=1;align=left;spacingLeft=9;verticalAlign=top;container=0;" vertex="1" parent="1eZ7Ucmmsv_nOP4tIIti-198">
          <mxGeometry x="38.3889908256881" width="134.36146788990825" height="60" as="geometry" />
        </mxCell>
        <mxCell id="1eZ7Ucmmsv_nOP4tIIti-195" value="" style="group" vertex="1" connectable="0" parent="1eZ7Ucmmsv_nOP4tIIti-198">
          <mxGeometry x="172.75" y="21.129999999999995" width="35.25" height="17.75" as="geometry" />
        </mxCell>
        <mxCell id="1eZ7Ucmmsv_nOP4tIIti-65" value="" style="html=1;rounded=0;container=0;" vertex="1" parent="1eZ7Ucmmsv_nOP4tIIti-195">
          <mxGeometry width="17.25" height="17.75" as="geometry" />
        </mxCell>
        <mxCell id="1eZ7Ucmmsv_nOP4tIIti-66" value="" style="endArrow=none;html=1;rounded=0;align=center;verticalAlign=top;endFill=0;labelBackgroundColor=none;endSize=2;" edge="1" parent="1eZ7Ucmmsv_nOP4tIIti-195" source="1eZ7Ucmmsv_nOP4tIIti-65" target="1eZ7Ucmmsv_nOP4tIIti-67">
          <mxGeometry relative="1" as="geometry" />
        </mxCell>
        <mxCell id="1eZ7Ucmmsv_nOP4tIIti-67" value="" style="ellipse;html=1;fontSize=11;align=center;fillColor=none;points=[];aspect=fixed;resizable=0;verticalAlign=bottom;labelPosition=center;verticalLabelPosition=top;flipH=1;container=0;" vertex="1" parent="1eZ7Ucmmsv_nOP4tIIti-195">
          <mxGeometry x="27.25" y="4.8700000000000045" width="8" height="8" as="geometry" />
        </mxCell>
        <mxCell id="1eZ7Ucmmsv_nOP4tIIti-196" value="" style="group" vertex="1" connectable="0" parent="1eZ7Ucmmsv_nOP4tIIti-198">
          <mxGeometry x="90" y="60" width="20" height="37.5" as="geometry" />
        </mxCell>
        <mxCell id="1eZ7Ucmmsv_nOP4tIIti-90" value="" style="html=1;rounded=0;" vertex="1" parent="1eZ7Ucmmsv_nOP4tIIti-196">
          <mxGeometry width="20" height="20" as="geometry" />
        </mxCell>
        <mxCell id="1eZ7Ucmmsv_nOP4tIIti-91" value="" style="endArrow=none;html=1;rounded=0;align=center;verticalAlign=top;endFill=0;labelBackgroundColor=none;endSize=2;entryX=1.134;entryY=0.5;entryDx=0;entryDy=0;entryPerimeter=0;" edge="1" source="1eZ7Ucmmsv_nOP4tIIti-90" target="1eZ7Ucmmsv_nOP4tIIti-92" parent="1eZ7Ucmmsv_nOP4tIIti-196">
          <mxGeometry relative="1" as="geometry">
            <mxPoint x="13" y="50" as="targetPoint" />
          </mxGeometry>
        </mxCell>
        <mxCell id="1eZ7Ucmmsv_nOP4tIIti-92" value="" style="shape=requiredInterface;html=1;fontSize=11;align=center;fillColor=none;points=[];aspect=fixed;resizable=0;verticalAlign=bottom;labelPosition=center;verticalLabelPosition=top;flipH=1;rotation=90;" vertex="1" parent="1eZ7Ucmmsv_nOP4tIIti-196">
          <mxGeometry x="7.5" y="30" width="5" height="10" as="geometry" />
        </mxCell>
        <mxCell id="1eZ7Ucmmsv_nOP4tIIti-197" value="" style="group" vertex="1" connectable="0" parent="1eZ7Ucmmsv_nOP4tIIti-198">
          <mxGeometry y="21.129999999999995" width="38.389999999999986" height="17.75" as="geometry" />
        </mxCell>
        <mxCell id="1eZ7Ucmmsv_nOP4tIIti-68" value="" style="html=1;rounded=0;container=0;" vertex="1" parent="1eZ7Ucmmsv_nOP4tIIti-197">
          <mxGeometry x="20" width="18.39" height="17.75" as="geometry" />
        </mxCell>
        <mxCell id="1eZ7Ucmmsv_nOP4tIIti-69" value="" style="endArrow=none;html=1;rounded=0;align=center;verticalAlign=top;endFill=0;labelBackgroundColor=none;endSize=2;" edge="1" parent="1eZ7Ucmmsv_nOP4tIIti-197" source="1eZ7Ucmmsv_nOP4tIIti-68" target="1eZ7Ucmmsv_nOP4tIIti-70">
          <mxGeometry relative="1" as="geometry" />
        </mxCell>
        <mxCell id="1eZ7Ucmmsv_nOP4tIIti-70" value="" style="shape=requiredInterface;html=1;fontSize=11;align=center;fillColor=none;points=[];aspect=fixed;resizable=0;verticalAlign=bottom;labelPosition=center;verticalLabelPosition=top;flipH=1;rotation=-180;container=0;" vertex="1" parent="1eZ7Ucmmsv_nOP4tIIti-197">
          <mxGeometry y="3.8700000000000045" width="5" height="10" as="geometry" />
        </mxCell>
        <mxCell id="1eZ7Ucmmsv_nOP4tIIti-88" style="rounded=0;orthogonalLoop=1;jettySize=auto;html=1;labelBackgroundColor=none;endArrow=none;endFill=0;fontSize=9;dashed=1;exitX=-0.059;exitY=0.524;exitDx=0;exitDy=0;exitPerimeter=0;" edge="1" parent="1eZ7Ucmmsv_nOP4tIIti-206" source="1eZ7Ucmmsv_nOP4tIIti-67" target="1eZ7Ucmmsv_nOP4tIIti-83">
          <mxGeometry relative="1" as="geometry">
            <mxPoint x="278" y="109.5" as="sourcePoint" />
            <mxPoint x="290" y="109.5" as="targetPoint" />
          </mxGeometry>
        </mxCell>
        <mxCell id="1eZ7Ucmmsv_nOP4tIIti-199" value="" style="group" vertex="1" connectable="0" parent="1eZ7Ucmmsv_nOP4tIIti-206">
          <mxGeometry x="370" y="190" width="20" height="37.5" as="geometry" />
        </mxCell>
        <mxCell id="1eZ7Ucmmsv_nOP4tIIti-161" value="" style="html=1;rounded=0;" vertex="1" parent="1eZ7Ucmmsv_nOP4tIIti-199">
          <mxGeometry width="20" height="20" as="geometry" />
        </mxCell>
        <mxCell id="1eZ7Ucmmsv_nOP4tIIti-162" value="" style="endArrow=none;html=1;rounded=0;align=center;verticalAlign=top;endFill=0;labelBackgroundColor=none;endSize=2;" edge="1" source="1eZ7Ucmmsv_nOP4tIIti-161" target="1eZ7Ucmmsv_nOP4tIIti-163" parent="1eZ7Ucmmsv_nOP4tIIti-199">
          <mxGeometry relative="1" as="geometry" />
        </mxCell>
        <mxCell id="1eZ7Ucmmsv_nOP4tIIti-163" value="" style="shape=requiredInterface;html=1;fontSize=11;align=center;fillColor=none;points=[];aspect=fixed;resizable=0;verticalAlign=bottom;labelPosition=center;verticalLabelPosition=top;flipH=1;rotation=90;" vertex="1" parent="1eZ7Ucmmsv_nOP4tIIti-199">
          <mxGeometry x="7.5" y="30" width="5" height="10" as="geometry" />
        </mxCell>
        <mxCell id="1eZ7Ucmmsv_nOP4tIIti-164" value="" style="endArrow=none;html=1;rounded=0;align=center;verticalAlign=top;endFill=0;labelBackgroundColor=none;endSize=2;" edge="1" parent="1eZ7Ucmmsv_nOP4tIIti-206" source="1eZ7Ucmmsv_nOP4tIIti-92" target="1eZ7Ucmmsv_nOP4tIIti-161">
          <mxGeometry relative="1" as="geometry">
            <mxPoint x="169" y="177.5" as="sourcePoint" />
            <mxPoint x="169" y="199.5" as="targetPoint" />
          </mxGeometry>
        </mxCell>
        <mxCell id="1eZ7Ucmmsv_nOP4tIIti-14" value="" style="shape=module;jettyWidth=10;jettyHeight=4;container=0;" vertex="1" parent="1eZ7Ucmmsv_nOP4tIIti-206">
          <mxGeometry x="207.75045871559632" y="78.5" width="16" height="20" as="geometry">
            <mxPoint x="-25" y="9" as="offset" />
          </mxGeometry>
        </mxCell>
        <mxCell id="1eZ7Ucmmsv_nOP4tIIti-203" value="" style="group" vertex="1" connectable="0" parent="1eZ7Ucmmsv_nOP4tIIti-206">
          <mxGeometry x="60" y="69.5" width="208" height="98" as="geometry" />
        </mxCell>
        <mxCell id="1eZ7Ucmmsv_nOP4tIIti-13" value="&lt;div&gt;&amp;lt;&amp;lt;component&amp;gt;&amp;gt;&lt;/div&gt;&lt;div&gt;&lt;b&gt;:ReqToken&lt;/b&gt;&lt;/div&gt;" style="html=1;align=left;spacingLeft=9;verticalAlign=top;container=0;" vertex="1" parent="1eZ7Ucmmsv_nOP4tIIti-203">
          <mxGeometry x="38.3889908256881" width="134.36146788990825" height="60" as="geometry" />
        </mxCell>
        <mxCell id="1eZ7Ucmmsv_nOP4tIIti-200" value="" style="group" vertex="1" connectable="0" parent="1eZ7Ucmmsv_nOP4tIIti-203">
          <mxGeometry y="21.129999999999995" width="38.389999999999986" height="17.75" as="geometry" />
        </mxCell>
        <mxCell id="1eZ7Ucmmsv_nOP4tIIti-55" value="" style="html=1;rounded=0;container=0;" vertex="1" parent="1eZ7Ucmmsv_nOP4tIIti-200">
          <mxGeometry x="20" width="18.39" height="17.75" as="geometry" />
        </mxCell>
        <mxCell id="1eZ7Ucmmsv_nOP4tIIti-56" value="" style="endArrow=none;html=1;rounded=0;align=center;verticalAlign=top;endFill=0;labelBackgroundColor=none;endSize=2;" edge="1" source="1eZ7Ucmmsv_nOP4tIIti-55" target="1eZ7Ucmmsv_nOP4tIIti-57" parent="1eZ7Ucmmsv_nOP4tIIti-200">
          <mxGeometry relative="1" as="geometry" />
        </mxCell>
        <mxCell id="1eZ7Ucmmsv_nOP4tIIti-57" value="" style="shape=requiredInterface;html=1;fontSize=11;align=center;fillColor=none;points=[];aspect=fixed;resizable=0;verticalAlign=bottom;labelPosition=center;verticalLabelPosition=top;flipH=1;rotation=-180;container=0;" vertex="1" parent="1eZ7Ucmmsv_nOP4tIIti-200">
          <mxGeometry y="3.8700000000000045" width="5" height="10" as="geometry" />
        </mxCell>
        <mxCell id="1eZ7Ucmmsv_nOP4tIIti-201" value="" style="group" vertex="1" connectable="0" parent="1eZ7Ucmmsv_nOP4tIIti-203">
          <mxGeometry x="90" y="60" width="17.25" height="38" as="geometry" />
        </mxCell>
        <mxCell id="1eZ7Ucmmsv_nOP4tIIti-59" value="" style="html=1;rounded=0;container=0;" vertex="1" parent="1eZ7Ucmmsv_nOP4tIIti-201">
          <mxGeometry width="17.25" height="17.75" as="geometry" />
        </mxCell>
        <mxCell id="1eZ7Ucmmsv_nOP4tIIti-60" value="" style="endArrow=none;html=1;rounded=0;align=center;verticalAlign=top;endFill=0;labelBackgroundColor=none;endSize=2;" edge="1" parent="1eZ7Ucmmsv_nOP4tIIti-201" source="1eZ7Ucmmsv_nOP4tIIti-59" target="1eZ7Ucmmsv_nOP4tIIti-61">
          <mxGeometry relative="1" as="geometry" />
        </mxCell>
        <mxCell id="1eZ7Ucmmsv_nOP4tIIti-61" value="" style="ellipse;html=1;fontSize=11;align=center;fillColor=none;points=[];aspect=fixed;resizable=0;verticalAlign=bottom;labelPosition=center;verticalLabelPosition=top;flipH=1;container=0;" vertex="1" parent="1eZ7Ucmmsv_nOP4tIIti-201">
          <mxGeometry x="4.6299999999999955" y="30" width="8" height="8" as="geometry" />
        </mxCell>
        <mxCell id="1eZ7Ucmmsv_nOP4tIIti-202" value="" style="group" vertex="1" connectable="0" parent="1eZ7Ucmmsv_nOP4tIIti-203">
          <mxGeometry x="172.75" y="21.129999999999995" width="35.25" height="17.75" as="geometry" />
        </mxCell>
        <mxCell id="1eZ7Ucmmsv_nOP4tIIti-46" value="" style="html=1;rounded=0;container=0;" vertex="1" parent="1eZ7Ucmmsv_nOP4tIIti-202">
          <mxGeometry width="17.25" height="17.75" as="geometry" />
        </mxCell>
        <mxCell id="1eZ7Ucmmsv_nOP4tIIti-47" value="" style="endArrow=none;html=1;rounded=0;align=center;verticalAlign=top;endFill=0;labelBackgroundColor=none;endSize=2;" edge="1" source="1eZ7Ucmmsv_nOP4tIIti-46" target="1eZ7Ucmmsv_nOP4tIIti-48" parent="1eZ7Ucmmsv_nOP4tIIti-202">
          <mxGeometry relative="1" as="geometry" />
        </mxCell>
        <mxCell id="1eZ7Ucmmsv_nOP4tIIti-48" value="" style="ellipse;html=1;fontSize=11;align=center;fillColor=none;points=[];aspect=fixed;resizable=0;verticalAlign=bottom;labelPosition=center;verticalLabelPosition=top;flipH=1;container=0;" vertex="1" parent="1eZ7Ucmmsv_nOP4tIIti-202">
          <mxGeometry x="27.25" y="4.8700000000000045" width="8" height="8" as="geometry" />
        </mxCell>
        <mxCell id="1eZ7Ucmmsv_nOP4tIIti-75" style="rounded=0;orthogonalLoop=1;jettySize=auto;html=1;labelBackgroundColor=none;endArrow=none;endFill=0;fontSize=9;dashed=1;exitX=-0.054;exitY=0.499;exitDx=0;exitDy=0;exitPerimeter=0;" edge="1" parent="1eZ7Ucmmsv_nOP4tIIti-206" source="1eZ7Ucmmsv_nOP4tIIti-48" target="1eZ7Ucmmsv_nOP4tIIti-70">
          <mxGeometry relative="1" as="geometry">
            <mxPoint x="268" y="100.5" as="sourcePoint" />
            <mxPoint x="400" y="224.5" as="targetPoint" />
          </mxGeometry>
        </mxCell>
        <mxCell id="1eZ7Ucmmsv_nOP4tIIti-204" value="" style="group" vertex="1" connectable="0" parent="1eZ7Ucmmsv_nOP4tIIti-206">
          <mxGeometry x="148.63" y="189.5" width="20" height="38" as="geometry" />
        </mxCell>
        <mxCell id="1eZ7Ucmmsv_nOP4tIIti-157" value="" style="html=1;rounded=0;" vertex="1" parent="1eZ7Ucmmsv_nOP4tIIti-204">
          <mxGeometry width="20" height="20" as="geometry" />
        </mxCell>
        <mxCell id="1eZ7Ucmmsv_nOP4tIIti-158" value="" style="endArrow=none;html=1;rounded=0;align=center;verticalAlign=top;endFill=0;labelBackgroundColor=none;endSize=2;" edge="1" source="1eZ7Ucmmsv_nOP4tIIti-157" target="1eZ7Ucmmsv_nOP4tIIti-159" parent="1eZ7Ucmmsv_nOP4tIIti-204">
          <mxGeometry relative="1" as="geometry" />
        </mxCell>
        <mxCell id="1eZ7Ucmmsv_nOP4tIIti-159" value="" style="ellipse;html=1;fontSize=11;align=center;fillColor=none;points=[];aspect=fixed;resizable=0;verticalAlign=bottom;labelPosition=center;verticalLabelPosition=top;flipH=1;" vertex="1" parent="1eZ7Ucmmsv_nOP4tIIti-204">
          <mxGeometry x="6" y="30" width="8" height="8" as="geometry" />
        </mxCell>
        <mxCell id="1eZ7Ucmmsv_nOP4tIIti-160" value="" style="endArrow=none;html=1;rounded=0;align=center;verticalAlign=top;endFill=0;labelBackgroundColor=none;endSize=2;exitX=0.498;exitY=0.971;exitDx=0;exitDy=0;exitPerimeter=0;entryX=0.5;entryY=0;entryDx=0;entryDy=0;" edge="1" parent="1eZ7Ucmmsv_nOP4tIIti-206" source="1eZ7Ucmmsv_nOP4tIIti-61" target="1eZ7Ucmmsv_nOP4tIIti-157">
          <mxGeometry relative="1" as="geometry">
            <mxPoint x="170" y="219.5" as="sourcePoint" />
            <mxPoint x="170" y="229.5" as="targetPoint" />
          </mxGeometry>
        </mxCell>
        <mxCell id="1eZ7Ucmmsv_nOP4tIIti-205" value="" style="group" vertex="1" connectable="0" parent="1eZ7Ucmmsv_nOP4tIIti-206">
          <mxGeometry y="89.5" width="43" height="20" as="geometry" />
        </mxCell>
        <mxCell id="1eZ7Ucmmsv_nOP4tIIti-178" value="" style="html=1;rounded=0;" vertex="1" parent="1eZ7Ucmmsv_nOP4tIIti-205">
          <mxGeometry x="23" width="20" height="20" as="geometry" />
        </mxCell>
        <mxCell id="1eZ7Ucmmsv_nOP4tIIti-179" value="" style="endArrow=none;html=1;rounded=0;align=center;verticalAlign=top;endFill=0;labelBackgroundColor=none;endSize=2;" edge="1" parent="1eZ7Ucmmsv_nOP4tIIti-205" source="1eZ7Ucmmsv_nOP4tIIti-178" target="1eZ7Ucmmsv_nOP4tIIti-180">
          <mxGeometry relative="1" as="geometry" />
        </mxCell>
        <mxCell id="1eZ7Ucmmsv_nOP4tIIti-180" value="" style="shape=requiredInterface;html=1;fontSize=11;align=center;fillColor=none;points=[];aspect=fixed;resizable=0;verticalAlign=bottom;labelPosition=center;verticalLabelPosition=top;flipH=1;rotation=-180;" vertex="1" parent="1eZ7Ucmmsv_nOP4tIIti-205">
          <mxGeometry y="5" width="5" height="10" as="geometry" />
        </mxCell>
        <mxCell id="1eZ7Ucmmsv_nOP4tIIti-181" value="" style="endArrow=none;html=1;rounded=0;align=center;verticalAlign=top;endFill=0;labelBackgroundColor=none;endSize=2;" edge="1" parent="1eZ7Ucmmsv_nOP4tIIti-206" source="1eZ7Ucmmsv_nOP4tIIti-178" target="1eZ7Ucmmsv_nOP4tIIti-57">
          <mxGeometry relative="1" as="geometry">
            <mxPoint x="169" y="177.5" as="sourcePoint" />
            <mxPoint x="169" y="199.5" as="targetPoint" />
          </mxGeometry>
        </mxCell>
      </root>
    </mxGraphModel>
  </diagram>
</mxfile>
